HIERARCHY
ROOT Pelvis
{
	OFFSET 0.000000 0.000000 0.000000
	CHANNELS 6 Xposition Yposition Zposition Xrotation Yrotation Zrotation
	JOINT LeftUpLeg_virtual
	{
		OFFSET 0.000000 0.000000 0.000000
		CHANNELS 3 Xrotation Yrotation Zrotation
		JOINT LeftUpLeg
		{
			OFFSET 18.735201 -5.666702 -4.541200
			CHANNELS 3 Xrotation Yrotation Zrotation
			JOINT LeftLeg
			{
				OFFSET -0.021200 -31.938179 0.493100
				CHANNELS 3 Xrotation Yrotation Zrotation
				JOINT LeftFoot
				{
					OFFSET 0.021200 -31.938179 -4.336299
					CHANNELS 3 Xrotation Yrotation Zrotation
					JOINT LeftToeBase
					{
						OFFSET 0.943001 -26.722000 15.023500
						CHANNELS 3 Xrotation Yrotation Zrotation
						End Site
						{
							OFFSET 0 0 0
						}
					}
				}
			}
		}
	}
	JOINT RightUpLeg_virtual
	{
		OFFSET 0.000000 0.000000 0.000000
		CHANNELS 3 Xrotation Yrotation Zrotation
		JOINT RightUpLeg
		{
			OFFSET -18.735201 -5.666702 -4.541200
			CHANNELS 3 Xrotation Yrotation Zrotation
			JOINT RightLeg
			{
				OFFSET 0.018946 -31.938133 0.493100
				CHANNELS 3 Xrotation Yrotation Zrotation
				JOINT RightFoot
				{
					OFFSET -0.018946 -31.938126 -4.336299
					CHANNELS 3 Xrotation Yrotation Zrotation
					JOINT RightToeBase
					{
						OFFSET -0.943001 -26.722004 15.023500
						CHANNELS 3 Xrotation Yrotation Zrotation
						End Site
						{
							OFFSET 0 0 0
						}
					}
				}
			}
		}
	}
	JOINT Hips_virtual
	{
		OFFSET 0.000000 0.000000 0.000000
		CHANNELS 3 Xrotation Yrotation Zrotation
		JOINT Hips
		{
			OFFSET -0.000000 -0.000000 -0.000000
			CHANNELS 3 Xrotation Yrotation Zrotation
			JOINT Spine
			{
				OFFSET 0.000000 10.199997 -0.299500
				CHANNELS 3 Xrotation Yrotation Zrotation
				JOINT Spine1
				{
					OFFSET 0.000000 11.900002 -1.516600
					CHANNELS 3 Xrotation Yrotation Zrotation
					JOINT Spine2
					{
						OFFSET 0.000000 13.600006 -2.842500
						CHANNELS 3 Xrotation Yrotation Zrotation
						JOINT Neck_virtual
						{
							OFFSET 0.000000 0.000000 0.000000
							CHANNELS 3 Xrotation Yrotation Zrotation
							JOINT Neck
							{
								OFFSET 0.000000 9.624100 -2.890100
								CHANNELS 3 Xrotation Yrotation Zrotation
								JOINT Head
								{
									OFFSET 0.000000 14.068802 -1.351900
									CHANNELS 3 Xrotation Yrotation Zrotation
									End Site
									{
										OFFSET 0 0 0
									}
								}
							}
						}
						JOINT LeftShoulder_virtual
						{
							OFFSET 0.000000 0.000000 0.000000
							CHANNELS 3 Xrotation Yrotation Zrotation
							JOINT LeftShoulder
							{
								OFFSET 15.263000 10.923401 -0.547700
								CHANNELS 3 Xrotation Yrotation Zrotation
								JOINT LeftArm
								{
									OFFSET 25.438599 -2.830597 -13.032500
									CHANNELS 3 Xrotation Yrotation Zrotation
									JOINT LeftForeArm
									{
										OFFSET 29.960503 0.000000 0.000000
										CHANNELS 3 Xrotation Yrotation Zrotation
										JOINT LeftHand
										{
											OFFSET 27.849251 0.000000 0.000000
											CHANNELS 3 Xrotation Yrotation Zrotation
											End Site
											{
												OFFSET 0 0 0
											}
										}
									}
								}
							}
						}
						JOINT RightShoulder_virtual
						{
							OFFSET 0.000000 0.000000 0.000000
							CHANNELS 3 Xrotation Yrotation Zrotation
							JOINT RightShoulder
							{
								OFFSET -15.263000 10.923401 -0.547700
								CHANNELS 3 Xrotation Yrotation Zrotation
								JOINT RightArm
								{
									OFFSET -25.438599 -2.830597 -13.032500
									CHANNELS 3 Xrotation Yrotation Zrotation
									JOINT RightForeArm
									{
										OFFSET -29.960503 0.000000 0.000000
										CHANNELS 3 Xrotation Yrotation Zrotation
										JOINT RightHand
										{
											OFFSET -27.849251 0.000000 0.000000
											CHANNELS 3 Xrotation Yrotation Zrotation
											End Site
											{
												OFFSET 0 0 0
											}
										}
									}
								}
							}
						}
					}
				}
			}
		}
	}
}
MOTION
Frames: 9
Frame Time: 0.03333333
0.088494 92.072807 4.425894 0.000000 0.000000 0.000000 -1.733903 2.665280 2.165853 -7.076385 11.584359 4.903793 27.326801 -4.835844 2.164659 -13.271384 2.751261 -6.499037 0.000000 0.000000 0.000000 -2.048303 3.843865 1.642907 0.504280 -3.925993 -4.089178 23.877474 -8.713773 4.045528 -23.554654 -18.203378 7.964274 0.000000 0.000000 0.000000 -2.322371 2.739594 2.217896 -0.285744 -0.429651 -1.221327 -0.582630 -0.776917 -3.136206 0.845175 -0.633574 1.698654 0.000000 0.000000 0.000000 0.687202 -0.163606 1.476223 3.647388 -0.184151 0.262084 0.000000 0.000000 0.000000 0.605816 0.061843 1.324165 5.786811 -22.451279 -3.653425 3.097177 0.303056 -81.003400 1.496946 -15.392815 0.063686 0.000000 0.000000 0.000000 1.036707 -0.076611 1.193173 -0.591252 -3.238000 7.774533 7.231231 20.073077 70.030148 3.082179 18.559183 -1.588807 0.000000 0.000000 0.000000 
0.089975 92.092964 4.537718 0.000000 0.000000 0.000000 -1.721831 2.734765 2.138076 -7.075971 11.643380 4.955302 27.441555 -4.753369 2.144098 -13.293267 2.723151 -6.438514 0.000000 0.000000 0.000000 -2.009307 3.952010 1.631500 0.566669 -3.916022 -4.031177 23.780967 -8.713188 4.053090 -23.590473 -18.262360 7.920802 0.000000 0.000000 0.000000 -2.306032 2.778360 2.208654 -0.345323 -0.432236 -1.239099 -0.570813 -0.770662 -3.134301 0.818611 -0.619906 1.694174 0.000000 0.000000 0.000000 0.678761 -0.149607 1.482302 3.651021 -0.180327 0.254487 0.000000 0.000000 0.000000 0.570575 0.070162 1.321803 5.803449 -22.477425 -3.711618 3.030396 0.386436 -81.012519 1.471557 -15.380495 0.066136 0.000000 0.000000 0.000000 1.038524 -0.071215 1.187290 -0.567011 -3.364343 7.772529 7.395016 19.950346 69.808918 3.037117 18.533402 -1.511086 0.000000 0.000000 0.000000 
0.086519 92.110550 4.649494 0.000000 0.000000 0.000000 -1.707404 2.813133 2.094932 -6.988310 11.700248 4.982417 27.446509 -4.649070 2.158668 -13.417400 2.726713 -6.344604 0.000000 0.000000 0.000000 -1.989131 4.061566 1.594909 0.592561 -3.959821 -3.983183 23.766354 -8.697972 4.148108 -23.572871 -18.348516 7.825416 0.000000 0.000000 0.000000 -2.300516 2.873230 2.183056 -0.394692 -0.451246 -1.263953 -0.540851 -0.754172 -3.145543 0.796890 -0.586140 1.707454 0.000000 0.000000 0.000000 0.662513 -0.114522 1.502140 3.674559 -0.171539 0.236009 0.000000 0.000000 0.000000 0.521885 0.095120 1.333527 5.799721 -22.747400 -3.898397 3.138645 0.828424 -81.047366 1.380942 -15.504861 0.093558 0.000000 0.000000 0.000000 1.011515 -0.041269 1.204197 -0.513988 -3.557947 7.777251 7.573508 19.975151 69.713091 2.932896 18.582296 -1.371397 0.000000 0.000000 0.000000 
0.083326 92.133614 4.746119 0.000000 0.000000 0.000000 -1.703723 2.883946 2.044432 -6.858043 11.733299 5.006317 27.338887 -4.531216 2.194967 -13.609092 2.742418 -6.264063 0.000000 0.000000 0.000000 -1.995234 4.158285 1.539621 0.612141 -4.050635 -3.917503 23.745624 -8.704868 4.279491 -23.574948 -18.464110 7.645227 0.000000 0.000000 0.000000 -2.310249 3.003426 2.141563 -0.427874 -0.480300 -1.272640 -0.486978 -0.733181 -3.171363 0.777884 -0.539438 1.726938 0.000000 0.000000 0.000000 0.624802 -0.066547 1.526675 3.708392 -0.159025 0.212134 0.000000 0.000000 0.000000 0.476023 0.129762 1.350666 5.775491 -23.210053 -4.169778 3.341764 1.456220 -81.040509 1.247188 -15.680210 0.126850 0.000000 0.000000 0.000000 0.966886 0.005627 1.229535 -0.435203 -3.768604 7.780567 7.722282 20.139057 69.752296 2.749848 18.605304 -1.175484 0.000000 0.000000 0.000000 
0.076651 92.173874 4.798784 0.000000 0.000000 0.000000 -1.719939 2.929126 1.985979 -6.722496 11.708169 5.033706 27.145388 -4.393377 2.241504 -13.819305 2.754086 -6.219460 0.000000 0.000000 0.000000 -2.018050 4.208118 1.465770 0.657868 -4.133523 -3.819427 23.612823 -8.727149 4.387502 -23.589310 -18.573308 7.431997 0.000000 0.000000 0.000000 -2.334257 3.109712 2.077918 -0.442593 -0.487331 -1.260082 -0.393693 -0.716909 -3.208828 0.756213 -0.487318 1.736043 0.000000 0.000000 0.000000 0.562791 -0.018308 1.538409 3.737346 -0.143427 0.188926 0.000000 0.000000 0.000000 0.434931 0.165724 1.358871 5.735277 -23.755236 -4.447031 3.537568 2.069170 -80.912743 1.108553 -15.901836 0.151958 0.000000 0.000000 0.000000 0.914051 0.058247 1.242119 -0.358304 -3.970386 7.724265 7.782929 20.369694 69.835160 2.497268 18.580353 -0.934777 0.000000 0.000000 0.000000 
0.069534 92.224411 4.828779 0.000000 0.000000 0.000000 -1.758470 2.925218 1.912329 -6.603237 11.614523 5.060648 26.914463 -4.213770 2.290962 -14.017818 2.748631 -6.210979 0.000000 0.000000 0.000000 -2.052448 4.194051 1.371550 0.719208 -4.173740 -3.711834 23.446651 -8.735139 4.448911 -23.567481 -18.622840 7.270543 0.000000 0.000000 0.000000 -2.381849 3.169988 1.987911 -0.453141 -0.482872 -1.273171 -0.250167 -0.724525 -3.253483 0.729476 -0.443424 1.723136 0.000000 0.000000 0.000000 0.475621 0.018989 1.523306 3.748494 -0.126259 0.172198 0.000000 0.000000 0.000000 0.395888 0.191467 1.347430 5.695117 -24.284306 -4.649367 3.680090 2.458277 -80.673004 0.989509 -16.163387 0.157825 0.000000 0.000000 0.000000 0.852057 0.101504 1.225134 -0.295365 -4.165523 7.567379 7.726955 20.581827 69.901590 2.203030 18.583847 -0.685307 0.000000 0.000000 0.000000 
0.058569 92.262848 4.837927 0.000000 0.000000 0.000000 -1.816035 2.860565 1.816847 -6.489424 11.454299 5.069873 26.672621 -3.976394 2.349756 -14.204783 2.711536 -6.237757 0.000000 0.000000 0.000000 -2.101565 4.116844 1.254963 0.711166 -4.210967 -3.632005 23.416492 -8.735375 4.493657 -23.504887 -18.581724 7.184500 0.000000 0.000000 0.000000 -2.448764 3.150453 1.876809 -0.471195 -0.481705 -1.298483 -0.048568 -0.783522 -3.297266 0.702731 -0.418638 1.685488 0.000000 0.000000 0.000000 0.377022 0.033468 1.480243 3.738693 -0.108074 0.168717 0.000000 0.000000 0.000000 0.354158 0.198046 1.312765 5.668342 -24.700341 -4.751207 3.760595 2.596332 -80.378240 0.915377 -16.420202 0.144223 0.000000 0.000000 0.000000 0.790916 0.123556 1.177146 -0.243186 -4.338451 7.336380 7.494636 20.688834 69.996755 1.899878 18.640455 -0.482286 0.000000 0.000000 0.000000 
0.051296 92.274765 4.822733 0.000000 0.000000 0.000000 -1.897165 2.718225 1.704898 -6.371536 11.236387 5.067963 26.453345 -3.652588 2.414831 -14.349266 2.638396 -6.300118 0.000000 0.000000 0.000000 -2.168602 3.976311 1.114650 0.596936 -4.285079 -3.608404 23.617561 -8.758479 4.560259 -23.477867 -18.434894 7.148292 0.000000 0.000000 0.000000 -2.523328 3.011056 1.747627 -0.511140 -0.468848 -1.317359 0.229020 -0.928842 -3.332234 0.688552 -0.422776 1.630271 0.000000 0.000000 0.000000 0.293898 0.020725 1.418458 3.714470 -0.089502 0.182620 0.000000 0.000000 0.000000 0.312464 0.181060 1.259491 5.667875 -24.923014 -4.744203 3.819025 2.594025 -80.124854 0.887107 -16.693925 0.134393 0.000000 0.000000 0.000000 0.732302 0.119938 1.109146 -0.203943 -4.458155 7.116053 7.046811 20.592901 70.048836 1.624117 18.673391 -0.364895 0.000000 0.000000 0.000000 
0.047986 92.260292 4.790840 0.000000 0.000000 0.000000 -1.998781 2.480188 1.588437 -6.249043 10.987504 5.061624 26.300721 -3.202212 2.473276 -14.489565 2.552507 -6.390724 0.000000 0.000000 0.000000 -2.254160 3.745638 0.961638 0.354588 -4.439067 -3.667917 24.063784 -8.827265 4.664786 -23.552178 -18.149199 7.154353 0.000000 0.000000 0.000000 -2.599037 2.731190 1.620033 -0.533952 -0.443475 -1.345217 0.604760 -1.186643 -3.355482 0.687029 -0.460800 1.565753 0.000000 0.000000 0.000000 0.247625 -0.021309 1.349640 3.685995 -0.070526 0.212316 0.000000 0.000000 0.000000 0.274854 0.134432 1.195857 5.699463 -24.961635 -4.670625 3.854823 2.663694 -79.994602 0.904246 -16.975750 0.166831 0.000000 0.000000 0.000000 0.672196 0.087271 1.036743 -0.180451 -4.509059 6.977601 6.365440 20.136598 69.811282 1.384141 18.556869 -0.341254 0.000000 0.000000 0.000000 
